<?xml version="1.0" encoding="utf-8"?>
<!-- Generator: Adobe Illustrator 21.1.0, SVG Export Plug-In . SVG Version: 6.00 Build 0)  -->
<svg version="1.1" id="Camada_1" xmlns="http://www.w3.org/2000/svg" xmlns:xlink="http://www.w3.org/1999/xlink" x="0px" y="0px"
	 viewBox="0 0 4102.2 1321.1" style="enable-background:new 0 0 4102.2 1321.1;" xml:space="preserve">
<style type="text/css">
	.st0{fill:#242C59;}
	.st1{fill:#242C59;stroke:#242C59;stroke-width:16;stroke-miterlimit:10;}
	.st2{fill:#FFDD39;}
</style>
<g>
	<g>
		<path class="st0" d="M1905.9,653.4c-1.9-1.9-2.8-4.4-2.8-7.5V339.4c0-3.1,0.9-5.7,2.8-7.7c1.9-2,4.4-3,7.5-3h113.7
			c33.4,0,59.7,8.4,78.9,25c19.2,16.7,28.8,40.6,28.8,71.8c0,31.2-9.6,55.1-28.8,71.8c-19.2,16.7-45.5,25-78.9,25h-94.5v123.5
			c0,3.1-1,5.6-3,7.5c-2,1.9-4.6,2.8-7.7,2.8h-8.4C1910.3,656.2,1907.8,655.3,1905.9,653.4z M2024.8,494.3c26.8,0,47-5.9,60.4-17.5
			c13.4-11.7,20.1-28.8,20.1-51.2c0-22.5-6.7-39.5-20.1-51.2c-13.4-11.7-33.5-17.5-60.4-17.5h-92.2v137.6H2024.8z"/>
		<path class="st0" d="M2206.4,631.6c-18.1-19.5-28.4-45.6-30.9-78.4l-0.5-18.7l0.5-18.7c2.5-32.4,12.7-58.5,30.7-78.2
			c17.9-19.7,41.9-29.5,71.8-29.5c32.4,0,57.8,10.8,76,32.3c18.3,21.5,27.4,51,27.4,88.4v7c0,3.1-1,5.6-3,7.5
			c-2,1.9-4.6,2.8-7.7,2.8H2204v4.7c0.6,14.7,4,28.3,10.1,40.9s14.6,22.8,25.5,30.4c10.9,7.6,23.7,11.5,38.4,11.5
			c17.2,0,31.1-3.3,41.9-10.1c10.8-6.7,18.5-13.5,23.2-20.4c2.8-3.7,4.9-6.1,6.3-7s4-1.4,7.7-1.4h7.5c2.8,0,5.1,0.8,7,2.3
			c1.9,1.6,2.8,3.6,2.8,6.1c0,6.6-4.1,14.4-12.4,23.6c-8.3,9.2-19.7,17.2-34.4,23.9c-14.7,6.7-31.2,10.1-49.6,10.1
			C2248.3,660.9,2224.5,651.1,2206.4,631.6z M2352.9,520v-1.9c0-24-6.8-43.8-20.4-59.4c-13.6-15.6-31.8-23.4-54.5-23.4
			c-22.8,0-40.8,7.8-54.1,23.4c-13.3,15.6-19.9,35.4-19.9,59.4v1.9H2352.9z"/>
		<path class="st0" d="M2446,653.4c-1.9-1.9-2.8-4.4-2.8-7.5V423.2c0-3.1,0.9-5.6,2.8-7.5s4.4-2.8,7.5-2.8h8c3.1,0,5.6,0.9,7.5,2.8
			s2.8,4.4,2.8,7.5v22c9.4-12.2,20-21.4,32.1-27.6c12-6.2,27.5-9.4,46.6-9.4c30.6,0,54.1,9.8,70.7,29.2
			c16.5,19.5,24.8,44.7,24.8,75.6v132.9c0,3.1-0.9,5.6-2.8,7.5c-1.9,1.9-4.4,2.8-7.5,2.8h-8c-3.1,0-5.6-0.9-7.5-2.8
			c-1.9-1.9-2.8-4.4-2.8-7.5V515.3c0-25.3-6.2-44.9-18.5-59c-12.3-14-30-21.1-53.1-21.1c-22.5,0-40.4,7.1-53.8,21.3
			c-13.4,14.2-20.1,33.8-20.1,58.7v130.6c0,3.1-0.9,5.6-2.8,7.5c-1.9,1.9-4.4,2.8-7.5,2.8h-8C2450.4,656.2,2447.9,655.3,2446,653.4z
			"/>
		<path class="st0" d="M2745.3,650.6c-13.9-6.9-24.3-14.7-31.4-23.4c-7-8.7-10.5-15.8-10.5-21.1c0-2.8,1.1-5.1,3.3-6.8
			c2.2-1.7,4.5-2.6,7-2.6h7c2.2,0,4,0.4,5.4,1.2c1.4,0.8,3,2.4,4.9,4.9c6.9,9.7,15.2,17.2,25,22.7c9.8,5.5,23.3,8.2,40.5,8.2
			c19.3,0,34.9-3.7,46.8-11c11.9-7.3,17.8-17.9,17.8-31.6c0-8.4-2.4-15.3-7.3-20.6c-4.8-5.3-12.6-9.9-23.4-13.8
			c-10.8-3.9-26.8-8.3-48-13.3c-27.8-6.2-46.7-14.8-56.9-25.7c-10.1-10.9-15.2-24.8-15.2-41.7c0-11.5,3.2-22.5,9.6-32.8
			c6.4-10.3,15.9-18.7,28.5-25.3s27.8-9.8,45.6-9.8c18.7,0,34.6,3.2,47.5,9.6c12.9,6.4,22.6,13.8,29,22.2c6.4,8.4,9.6,15.3,9.6,20.6
			c0,2.8-1,5.1-3,6.8c-2,1.7-4.4,2.6-7.3,2.6h-7c-4.4,0-7.8-2-10.3-6.1c-6.2-9.4-13.3-16.5-21.3-21.3c-8-4.8-20.4-7.3-37.2-7.3
			c-18.1,0-31.8,3.7-41.2,11.2c-9.4,7.5-14,17.3-14,29.5c0,7.5,1.9,13.7,5.6,18.7c3.7,5,10.8,9.6,21.1,13.8s25.3,8.5,44.9,12.9
			c29,6.6,49.4,15.3,61.3,26.2c11.9,10.9,17.8,25.4,17.8,43.5c0,12.8-3.6,24.5-10.8,35.1c-7.2,10.6-17.8,19-31.8,25.3
			c-14,6.2-30.9,9.4-50.5,9.4C2776.2,660.9,2759.1,657.5,2745.3,650.6z"/>
		<path class="st0" d="M2973.4,651.5c-12.8-6.2-23-14.7-30.7-25.3c-7.6-10.6-11.5-22.3-11.5-35.1c0-20.6,8.3-37.4,25-50.5
			c16.7-13.1,39.2-21.5,67.6-25.3l73.9-10.3v-16.4c0-17.2-5.2-30.3-15.7-39.5c-10.5-9.2-26.4-13.8-48-13.8
			c-15.9,0-28.9,3.1-39.1,9.4c-10.1,6.2-16.6,13.7-19.4,22.5c-1.2,3.7-2.7,6.3-4.4,7.7c-1.7,1.4-4,2.1-6.8,2.1h-6.6
			c-2.8,0-5.2-1-7.3-3c-2-2-3-4.4-3-7.3c0-6.9,3.1-14.9,9.4-24.1c6.2-9.2,15.9-17.2,29-24.1c13.1-6.9,29.2-10.3,48.2-10.3
			c33.4,0,57.1,8,71.1,23.9c14,15.9,21.1,35.3,21.1,58v155.8c0,3.1-0.9,5.6-2.8,7.5c-1.9,1.9-4.4,2.8-7.5,2.8h-8
			c-3.1,0-5.6-0.9-7.5-2.8c-1.9-1.9-2.8-4.4-2.8-7.5v-22c-6.9,10.3-16.9,19-30.2,26.2c-13.3,7.2-30.8,10.8-52.6,10.8
			C3000.1,660.9,2986.2,657.8,2973.4,651.5z M3075.9,611.3c14.7-15,22-36.5,22-64.6v-15.9l-60.4,8.4c-25.6,3.4-44.9,9.4-58,17.8
			s-19.7,19-19.7,31.8c0,14.4,6,25.4,18,33.2c12,7.8,26,11.7,41.9,11.7C3042.5,633.7,3061.2,626.3,3075.9,611.3z"/>
		<path class="st0" d="M3203.2,653.4c-1.9-1.9-2.8-4.4-2.8-7.5V423.2c0-3.1,0.9-5.6,2.8-7.5s4.4-2.8,7.5-2.8h8
			c3.1,0,5.6,0.9,7.5,2.8s2.8,4.4,2.8,7.5v22c9.4-12.2,20-21.4,32.1-27.6c12-6.2,27.5-9.4,46.6-9.4c30.6,0,54.1,9.8,70.7,29.2
			c16.5,19.5,24.8,44.7,24.8,75.6v132.9c0,3.1-0.9,5.6-2.8,7.5c-1.9,1.9-4.4,2.8-7.5,2.8h-8c-3.1,0-5.6-0.9-7.5-2.8
			c-1.9-1.9-2.8-4.4-2.8-7.5V515.3c0-25.3-6.2-44.9-18.5-59c-12.3-14-30-21.1-53.1-21.1c-22.5,0-40.4,7.1-53.8,21.3
			c-13.4,14.2-20.1,33.8-20.1,58.7v130.6c0,3.1-0.9,5.6-2.8,7.5c-1.9,1.9-4.4,2.8-7.5,2.8h-8
			C3207.6,656.2,3205.1,655.3,3203.2,653.4z"/>
		<path class="st0" d="M3489.8,627.9c-16.1-22-24.6-48.7-25.5-80.3l-0.5-13.1l0.5-13.1c0.9-31.5,9.4-58.3,25.5-80.3
			c16.1-22,40.9-33,74.6-33c34,0,60.2,12.3,78.6,37V334.2c0-3.1,0.9-5.6,2.8-7.5s4.4-2.8,7.5-2.8h8c3.1,0,5.6,0.9,7.5,2.8
			s2.8,4.4,2.8,7.5v311.7c0,3.1-0.9,5.6-2.8,7.5c-1.9,1.9-4.4,2.8-7.5,2.8h-8c-3.1,0-5.6-0.9-7.5-2.8c-1.9-1.9-2.8-4.4-2.8-7.5v-22
			c-18.1,24.6-44.3,37-78.6,37C3530.8,660.9,3505.9,649.9,3489.8,627.9z M3623,609.2c12.5-16.4,19.2-35.6,20.1-57.8
			c0.3-3.1,0.5-9.2,0.5-18.3c0-9-0.2-15.1-0.5-18.3c-0.3-13.4-3.3-26.1-8.9-38.1c-5.6-12-14-21.9-25.3-29.7
			c-11.2-7.8-25.1-11.7-41.7-11.7c-25.3,0-43.8,8-55.5,24.1c-11.7,16.1-18,36.7-19,62l-0.5,13.1c0,29,5.6,52.8,16.8,71.4
			c11.2,18.6,30.6,27.8,58,27.8C3591.9,633.7,3610.5,625.6,3623,609.2z"/>
		<path class="st0" d="M3765,631.2c-17.9-19.8-27.4-45.5-28.3-77l-0.5-19.7l0.5-19.7c0.9-31.5,10.4-57.2,28.3-77
			c17.9-19.8,43.1-29.7,75.6-29.7c32.4,0,57.6,9.9,75.6,29.7c17.9,19.8,27.4,45.5,28.3,77c0.3,3.1,0.5,9.7,0.5,19.7
			c0,10-0.2,16.5-0.5,19.7c-0.9,31.5-10.4,57.2-28.3,77c-17.9,19.8-43.1,29.7-75.6,29.7C3808.1,660.9,3782.9,651,3765,631.2z
			 M3894.2,612.5c13.6-14.2,20.8-34.4,21.8-60.6c0.3-3.1,0.5-8.9,0.5-17.3s-0.2-14.2-0.5-17.3c-0.9-26.2-8.2-46.4-21.8-60.6
			c-13.6-14.2-31.4-21.3-53.6-21.3c-22.2,0-40,7.1-53.6,21.3c-13.6,14.2-20.8,34.4-21.8,60.6l-0.5,17.3l0.5,17.3
			c0.9,26.2,8.2,46.4,21.8,60.6c13.6,14.2,31.4,21.3,53.6,21.3C3862.7,633.7,3880.6,626.7,3894.2,612.5z"/>
	</g>
</g>
<g>
	<g>
		<path class="st0" d="M1903.1,1165.6c-1.9-2-2.8-4.6-2.8-7.7V852.2c0-3.4,0.9-6.2,2.8-8.2c1.9-2,4.4-3,7.5-3h105.8
			c47.1,0,81.1,10.5,102,31.6c20.9,21.1,31.7,52.8,32.3,95.2c0.3,9.1,0.5,21.2,0.5,36.5c0,15.3-0.2,27.6-0.5,37
			c-0.6,29.6-5.4,53.7-14.3,72.3c-8.9,18.6-22.9,32.4-41.9,41.4c-19,9.1-44.3,13.6-75.8,13.6h-108.1
			C1907.5,1168.6,1905,1167.6,1903.1,1165.6z M2016.4,1129.8c21.8,0,39.2-3,52.2-9.1c12.9-6.1,22.3-15.6,28.1-28.5
			c5.8-12.9,9-30.5,9.6-52.6c0.6-18.7,0.9-30.4,0.9-35.1c0-5-0.3-16.5-0.9-34.6c-0.6-31.2-8-54.1-22.2-68.6
			c-14.2-14.5-37.5-21.8-70-21.8h-69.7v250.4H2016.4z"/>
		<path class="st0" d="M2215.5,876.3c-2-2-3-4.6-3-7.7v-24.3c0-3.1,1-5.8,3-8c2-2.2,4.6-3.3,7.7-3.3h27.6c3.1,0,5.8,1.1,8,3.3
			c2.2,2.2,3.3,4.8,3.3,8v24.3c0,3.1-1.1,5.7-3.3,7.7c-2.2,2-4.8,3-8,3h-27.6C2220.1,879.4,2217.5,878.4,2215.5,876.3z
			 M2219.2,1165.6c-2-2-3-4.6-3-7.7V936c0-3.1,1-5.7,3-7.7c2-2,4.6-3,7.7-3h20.6c3.1,0,5.7,1,7.7,3c2,2,3,4.6,3,7.7v221.8
			c0,3.1-1,5.7-3,7.7c-2,2-4.6,3-7.7,3H2227C2223.8,1168.6,2221.3,1167.6,2219.2,1165.6z"/>
		<path class="st0" d="M2365,1258.5c-15.6-8.7-26.6-18.7-33-30c-6.4-11.2-9.6-20.9-9.6-29c0-2.8,1.1-5.2,3.3-7.3c2.2-2,4.7-3,7.5-3
			h20.6c2.8,0,5.1,0.7,7,2.1c1.9,1.4,3.4,4,4.7,7.7c8.7,25,28.5,37.4,59.4,37.4c23.4,0,40.7-5,51.9-15c11.2-10,16.8-27.6,16.8-52.9
			v-32.3c-18.1,23.1-43.4,34.6-75.8,34.6c-33.1,0-57.8-10.6-74.2-31.8c-16.4-21.2-25-48-26-80.5l-0.5-13.1l0.5-12.6
			c0.9-32.1,9.6-58.9,26-80.3c16.4-21.4,41.1-32.1,74.2-32.1c32.8,0,58.3,12,76.8,36v-20.1c0-3.1,1-5.8,3-8c2-2.2,4.6-3.3,7.7-3.3
			h20.1c3.1,0,5.7,1.1,7.7,3.3c2,2.2,3,4.8,3,8v227c0,72.1-36.3,108.1-109,108.1C2401.4,1271.6,2380.6,1267.2,2365,1258.5z
			 M2475.7,1113.1c11.1-14.2,17.1-31.3,18-51.2c0.3-2.8,0.5-8.3,0.5-16.4c0-7.8-0.2-13.1-0.5-15.9c-0.9-20-6.9-37-18-51.2
			c-11.1-14.2-27.5-21.3-49.4-21.3c-22.5,0-38.8,7.1-48.9,21.3c-10.1,14.2-15.7,32.5-16.6,55l-0.5,12.2l0.5,12.6
			c0.9,22.5,6.5,40.8,16.6,55c10.1,14.2,26.4,21.3,48.9,21.3C2448.2,1134.4,2464.6,1127.3,2475.7,1113.1z"/>
		<path class="st0" d="M2606.3,876.3c-2-2-3-4.6-3-7.7v-24.3c0-3.1,1-5.8,3-8c2-2.2,4.6-3.3,7.7-3.3h27.6c3.1,0,5.8,1.1,8,3.3
			c2.2,2.2,3.3,4.8,3.3,8v24.3c0,3.1-1.1,5.7-3.3,7.7c-2.2,2-4.8,3-8,3H2614C2610.9,879.4,2608.3,878.4,2606.3,876.3z M2610,1165.6
			c-2-2-3-4.6-3-7.7V936c0-3.1,1-5.7,3-7.7c2-2,4.6-3,7.7-3h20.6c3.1,0,5.7,1,7.7,3c2,2,3,4.6,3,7.7v221.8c0,3.1-1,5.7-3,7.7
			c-2,2-4.6,3-7.7,3h-20.6C2614.6,1168.6,2612,1167.6,2610,1165.6z"/>
		<path class="st0" d="M2740.3,1086.7V961.3h-37c-3.1,0-5.6-0.9-7.5-2.8c-1.9-1.9-2.8-4.4-2.8-7.5v-15c0-3.1,0.9-5.7,2.8-7.7
			c1.9-2,4.4-3,7.5-3h37v-78.2c0-3.1,0.9-5.7,2.8-7.7c1.9-2,4.4-3,7.5-3h20.6c3.1,0,5.7,1,7.7,3c2,2,3,4.6,3,7.7v78.2h58
			c3.1,0,5.7,1,7.7,3c2,2,3,4.6,3,7.7v15c0,3.1-1,5.6-3,7.5c-2,1.9-4.6,2.8-7.7,2.8h-58v122.1c0,15.9,2.6,27.9,7.7,36
			c5.1,8.1,14,12.2,26.4,12.2h28.5c3.1,0,5.6,1,7.5,3c1.9,2,2.8,4.6,2.8,7.7v15.4c0,3.1-0.9,5.7-2.8,7.7c-1.9,2-4.4,3-7.5,3h-31.8
			C2764.5,1168.6,2740.3,1141.3,2740.3,1086.7z"/>
		<path class="st0" d="M2925.9,1163.9c-13-6.2-23.2-14.7-30.9-25.5c-7.6-10.8-11.5-22.7-11.5-35.8c0-20.6,8.4-37.4,25.3-50.5
			c16.8-13.1,39.8-21.8,68.8-26.2l70.2-9.8v-13.6c0-32.1-18.6-48.2-55.7-48.2c-14.4,0-25.9,2.9-34.6,8.7
			c-8.7,5.8-15.1,12.6-19.2,20.4c-1.2,3.1-2.6,5.2-4,6.3c-1.4,1.1-3.4,1.6-5.8,1.6h-18.3c-2.8,0-5.2-1-7.3-3c-2-2-3-4.4-3-7.3
			c0-7.2,3.3-15.5,10.1-25c6.7-9.5,17.1-17.8,31.1-24.8c14-7,31.2-10.5,51.5-10.5c34.9,0,60,8.1,75.1,24.3
			c15.1,16.2,22.7,36.5,22.7,60.8v152.1c0,3.1-1,5.7-3,7.7c-2,2-4.6,3-7.7,3H3059c-3.1,0-5.6-1-7.5-3c-1.9-2-2.8-4.6-2.8-7.7v-20.6
			c-6.9,10.3-16.8,18.9-30,25.7c-13.1,6.9-30,10.3-50.5,10.3C2952.9,1173.3,2938.8,1170.2,2925.9,1163.9z M3028.1,1119
			c13.1-13.4,19.7-32.9,19.7-58.5v-13.1l-54.8,8c-22.5,3.1-39.5,8.4-51,15.9c-11.5,7.5-17.3,16.8-17.3,28.1
			c0,12.8,5.2,22.6,15.7,29.5c10.4,6.9,22.9,10.3,37.2,10.3C2998.2,1139.1,3015,1132.4,3028.1,1119z"/>
		<path class="st0" d="M3161.7,1165.6c-2-2-3-4.6-3-7.7V847.1c0-3.4,1-6.1,3-8c2-1.9,4.6-2.8,7.7-2.8h20.6c3.1,0,5.7,1,7.7,3
			c2,2,3,4.6,3,7.7v310.7c0,3.1-1,5.7-3,7.7c-2,2-4.6,3-7.7,3h-20.6C3166.3,1168.6,3163.8,1167.6,3161.7,1165.6z"/>
	</g>
</g>
<path class="st1" d="M1519.1,739c6.1-26.5,9.4-54,9.4-82.3c0-210-178.1-380.3-397.7-380.3c-23.8,0-47.1,2-69.7,5.8l154.8,286.6
	c41.2,76.4,4,138.8-82.8,138.8h-83.2v220.8c0,69-56,125-125,125c-69,0-125-56-125-125V707.7h-83.2c-86.8,0-124.1-62.5-82.8-138.8
	l65.7-121.6c-17.7-3.3-35.9-5.1-54.6-5.1C489.1,442.2,362.7,563,362.7,712c0,3.9,0.1,7.8,0.3,11.7h-0.9
	c-133.1,0-240.9,103.1-240.9,230.3c0,127.2,107.9,230.3,240.9,230.3H1433c133.1,0,240.9-103.1,240.9-230.3
	C1673.9,855.9,1609.6,772.1,1519.1,739z"/>
<g>
	<path class="st2" d="M924.8,150.8c11.7,0,26.2,13.5,37.9,35.2l215.7,400.1c12.4,23.1,15.2,43.7,7.5,56.7
		c-7.7,12.9-27.1,20.3-53.2,20.3h-83.1h-42v42v220.8c0,21.6-8.2,42-23.1,57.5c-14.8,15.5-34.8,24.5-56.1,25.4
		c-1.2,0.1-2.4,0.1-3.6,0.1c-21.9,0-42.7-8.7-58.4-24.6c-15.8-16-24.5-37.2-24.5-59.7V705.1v-42h-42h-83.1
		c-26.1,0-45.5-7.4-53.2-20.3c-7.7-12.9-5-33.6,7.5-56.7l215.7-400.1C898.6,164.3,913.1,150.8,924.8,150.8 M924.8,108.8
		c-27.1,0-54.3,19.1-74.9,57.3L634.2,566.2c-41.2,76.4-4,138.8,82.7,138.8H800v219.5c0,69.5,56.1,126.3,124.9,126.3
		c1.8,0,3.6,0,5.4-0.1c66.4-2.8,119.4-57.7,119.4-124.9V705.1h83.1c86.7,0,123.9-62.5,82.7-138.8L999.7,166.1
		C979.1,127.9,951.9,108.8,924.8,108.8L924.8,108.8z"/>
</g>
</svg>
